<svg width="562" height="547" viewBox="0 0 562 547" fill="none" xmlns="http://www.w3.org/2000/svg">
<path d="M363.064 1C291.983 7.9618 224.904 57.5794 214.01 68.7019C179.69 103.74 177.482 127.216 174.394 143.046C171.307 158.876 174.394 191.532 174.394 203.622C174.394 215.712 141.711 266.004 134.283 277.127C126.855 288.249 134.283 293.085 134.778 293.569C135.274 294.052 141.216 297.921 144.187 299.372C147.158 300.823 155.577 305.175 159.043 306.626C159.043 306.626 164.49 308.56 159.043 319.199L153.596 329.838C151.615 333.706 148.644 337.091 147.654 339.026C146.663 340.96 148.149 345.796 150.13 348.697C152.11 351.599 153.596 355.468 153.596 355.468C153.596 355.468 151.765 355.091 149.139 361.754C145.149 371.881 159.043 375.295 159.043 375.295C159.043 375.295 150.625 432.358 183.803 432.358C216.981 432.358 253.626 428.972 267.987 438.644C282.347 448.316 325.925 546 325.925 546H551.239L472.998 410.596C467.551 398.023 465.57 387.384 484.882 352.566C504.195 317.748 548.268 265.037 559.657 222.482C564.114 189.598 557.427 150.07 540.344 105.454C494.417 33.9307 457.152 1 363.064 1Z" fill="#BBD561" stroke="#13110F"/>
<g style="mix-blend-mode:hard-light">
<path d="M198.936 1C270.017 7.9618 337.096 57.5794 347.99 68.7019C382.31 103.74 384.518 127.216 387.606 143.046C390.693 158.876 387.606 191.532 387.606 203.622C387.606 215.712 420.289 266.004 427.717 277.127C435.145 288.249 427.717 293.085 427.222 293.569C426.726 294.052 420.784 297.921 417.813 299.372C414.842 300.823 406.423 305.175 402.957 306.626C402.957 306.626 397.51 308.56 402.957 319.199L408.404 329.838C410.385 333.706 413.356 337.091 414.346 339.026C415.337 340.96 413.851 345.796 411.87 348.697C409.89 351.599 408.404 355.468 408.404 355.468C408.404 355.468 410.235 355.091 412.861 361.754C416.851 371.881 402.957 375.295 402.957 375.295C402.957 375.295 411.375 432.358 378.197 432.358C345.019 432.358 308.374 428.972 294.013 438.644C279.653 448.316 236.075 546 236.075 546H10.7613L89.0023 410.596C94.4495 398.023 96.4303 387.384 77.1176 352.566C57.805 317.748 13.7324 265.037 2.34296 222.482C-2.11389 189.598 4.57257 150.07 21.6556 105.454C67.5826 33.9307 104.848 1 198.936 1Z" fill="#7138A5"/>
<path d="M198.936 1C270.017 7.9618 337.096 57.5794 347.99 68.7019C382.31 103.74 384.518 127.216 387.606 143.046C390.693 158.876 387.606 191.532 387.606 203.622C387.606 215.712 420.289 266.004 427.717 277.127C435.145 288.249 427.717 293.085 427.222 293.569C426.726 294.052 420.784 297.921 417.813 299.372C414.842 300.823 406.423 305.175 402.957 306.626C402.957 306.626 397.51 308.56 402.957 319.199L408.404 329.838C410.385 333.706 413.356 337.091 414.346 339.026C415.337 340.96 413.851 345.796 411.87 348.697C409.89 351.599 408.404 355.468 408.404 355.468C408.404 355.468 410.235 355.091 412.861 361.754C416.851 371.881 402.957 375.295 402.957 375.295C402.957 375.295 411.375 432.358 378.197 432.358C345.019 432.358 308.374 428.972 294.013 438.644C279.653 448.316 236.075 546 236.075 546H10.7613L89.0023 410.596C94.4495 398.023 96.4303 387.384 77.1176 352.566C57.805 317.748 13.7324 265.037 2.34296 222.482C-2.11389 189.598 4.57257 150.07 21.6556 105.454C67.5826 33.9307 104.848 1 198.936 1Z" stroke="#13110F"/>
</g>
</svg>
