<svg width="411" height="532" viewBox="0 0 411 532" fill="none" xmlns="http://www.w3.org/2000/svg">
<path d="M221.731 1C154.121 7.77019 90.3182 56.0222 79.956 66.8385C47.3123 100.912 45.2119 123.742 42.275 139.136C39.3381 154.531 42.275 186.288 42.275 198.045C42.275 209.802 11.1882 258.711 4.12294 269.527C-2.94229 280.343 4.12295 285.046 4.59396 285.516C5.06498 285.987 10.7171 289.749 13.5432 291.16C16.3693 292.571 24.3765 296.803 27.6736 298.214C27.6736 298.214 32.8547 300.095 27.6736 310.441L22.4925 320.787C20.6085 324.549 17.7823 327.841 16.8403 329.722C15.8983 331.603 17.3113 336.306 19.1954 339.128C21.0794 341.949 22.4925 345.712 22.4925 345.712C22.4925 345.712 20.7505 345.346 18.2533 351.825C14.4579 361.673 27.6736 364.993 27.6736 364.993C27.6736 364.993 19.6663 420.485 51.2242 420.485C82.7821 420.485 117.637 417.193 131.296 426.599C144.956 436.004 186.405 531 186.405 531H400.715L326.295 399.323C321.114 387.096 319.23 376.75 337.6 342.89C355.969 309.03 397.889 257.77 408.723 216.386C412.962 184.407 406.602 145.968 390.353 102.579C346.669 33.0243 311.223 1 221.731 1Z" fill="#13110F" stroke="#13110F"/>
<path d="M225.694 168.772C224.847 168.697 224.391 170.263 225.694 171.081C226.845 171.952 229.535 171.319 230.303 168.772C231.217 166.366 229.461 162.602 225.694 161.845C222.078 160.903 217.183 163.75 216.477 168.772C215.494 173.628 219.466 179.645 225.694 180.317C231.774 181.333 238.88 176.249 239.521 168.772C240.583 161.449 234.376 153.216 225.694 152.609C217.162 151.526 207.817 158.828 207.259 168.772C206.135 178.576 214.546 189.008 225.694 189.554C236.707 190.71 248.225 181.188 248.739 168.772C249.91 156.523 239.323 143.834 225.694 143.372C212.215 142.149 198.489 153.888 198.041 168.772C196.79 183.493 209.608 198.394 225.694 198.79C241.628 200.074 257.588 186.123 257.957 168.772C259.273 151.584 244.244 134.466 225.694 134.136C207.298 132.769 189.127 148.963 188.824 168.772C187.441 188.418 204.682 207.775 225.694 208.026C246.553 209.455 266.936 191.053 267.174 168.772C268.623 146.64 249.164 125.103 225.694 124.9C202.378 123.422 179.764 144.005 179.606 168.772C178.079 193.371 199.767 217.126 225.694 217.262C251.469 218.806 276.299 196.006 276.392 168.772C277.985 141.71 254.085 115.725 225.694 115.664C197.458 114.032 170.415 139.093 170.389 168.772C168.729 198.301 194.841 226.507 225.694 226.498C256.389 228.187 285.662 200.936 285.609 168.772C287.347 136.775 259.001 106.357 225.694 106.428C192.52 104.668 161.07 134.154 161.171 168.772C159.385 203.232 189.904 235.884 225.694 235.735C261.336 237.569 294.989 205.862 294.827 168.772C296.675 131.845 263.947 96.9758 225.694 97.1914C187.6 95.2869 151.708 129.228 151.953 168.772C150.026 208.18 184.984 245.248 225.694 244.97C266.252 246.937 304.356 210.797 304.045 168.772C306.037 126.906 268.868 87.5989 225.694 87.9552C182.674 85.91 142.358 124.289 142.736 168.772C140.677 213.124 180.058 254.612 225.694 254.207C271.169 256.3 313.719 215.744 313.262 168.772C315.404 121.948 273.784 78.2527 225.694 78.7189C177.754 76.5594 133 119.332 133.518 168.772C131.31 218.054 175.143 263.993 225.694 263.443C276.097 265.677 323.064 220.675 322.48 168.772C324.749 117.023 278.709 68.8714 225.694 69.4828C172.838 67.178 123.638 114.406 124.301 168.772C121.947 222.989 170.226 273.361 225.694 272.68C281.031 275.05 332.409 225.606 331.698 168.772C334.094 112.11 283.647 59.4813 225.694 60.2465C167.891 57.8011 114.306 109.476 115.083 168.772C112.62 227.915 165.279 282.743 225.694 281.915C285.952 284.431 341.771 230.536 340.915 168.772C343.457 107.162 288.568 50.1175 225.694 51.0103" stroke="#5B58C0" stroke-width="3" stroke-linecap="round"/>
</svg>
