<svg width="38" height="39" viewBox="0 0 38 39" fill="none" xmlns="http://www.w3.org/2000/svg">
<path id="icon" d="M29.4147 20.5864C29.2291 20.4005 29.0087 20.253 28.7661 20.1524C28.5234 20.0518 28.2633 20 28.0007 20C27.738 20 27.4779 20.0518 27.2353 20.1524C26.9927 20.253 26.7722 20.4005 26.5867 20.5864L23.3987 23.7744C21.9207 23.3344 19.1627 22.3344 17.4147 20.5864C15.6667 18.8384 14.6667 16.0804 14.2267 14.6024L17.4147 11.4144C17.6006 11.2288 17.748 11.0084 17.8487 10.7658C17.9493 10.5232 18.0011 10.2631 18.0011 10.0004C18.0011 9.73774 17.9493 9.47765 17.8487 9.23502C17.748 8.99239 17.6006 8.77198 17.4147 8.5864L9.41467 0.586402C9.22909 0.400511 9.00868 0.253035 8.76605 0.152414C8.52342 0.0517922 8.26333 0 8.00067 0C7.738 0 7.47791 0.0517922 7.23528 0.152414C6.99265 0.253035 6.77224 0.400511 6.58667 0.586402L1.16267 6.0104C0.402668 6.7704 -0.0253325 7.8144 -0.00933254 8.8804C0.0366675 11.7284 0.790668 21.6204 8.58667 29.4164C16.3827 37.2124 26.2747 37.9644 29.1247 38.0124H29.1807C30.2367 38.0124 31.2347 37.5964 31.9907 36.8404L37.4147 31.4164C37.6006 31.2308 37.748 31.0104 37.8487 30.7678C37.9493 30.5252 38.0011 30.2651 38.0011 30.0024C38.0011 29.7397 37.9493 29.4796 37.8487 29.237C37.748 28.9944 37.6006 28.774 37.4147 28.5884L29.4147 20.5864ZM29.1607 34.0104C26.6647 33.9684 18.1247 33.2984 11.4147 26.5864C4.68267 19.8544 4.03067 11.2844 3.99067 8.8384L8.00067 4.8284L13.1727 10.0004L10.5867 12.5864C10.3516 12.8213 10.1788 13.1111 10.0838 13.4295C9.98879 13.748 9.97466 14.0851 10.0427 14.4104C10.0907 14.6404 11.2647 20.0944 14.5847 23.4144C17.9047 26.7344 23.3587 27.9084 23.5887 27.9564C23.9138 28.0263 24.2512 28.0133 24.57 27.9186C24.8887 27.8239 25.1785 27.6505 25.4127 27.4144L28.0007 24.8284L33.1727 30.0004L29.1607 34.0104Z" fill="#13110F"/>
</svg>
